<svg xmlns:dc="http://purl.org/dc/elements/1.1/" xmlns:cc="http://creativecommons.org/ns#" xmlns:rdf="http://www.w3.org/1999/02/22-rdf-syntax-ns#" xmlns:svg="http://www.w3.org/2000/svg" xmlns="http://www.w3.org/2000/svg" viewBox="0 0 50 50" preserveAspectRatio="xMidYMid meet"><metadata><rdf:RDF><cc:Work><dc:format>image/svg+xml</dc:format><dc:type rdf:resource="http://purl.org/dc/dcmitype/StillImage"/><dc:title>Jdenticon</dc:title><dc:creator><cc:Agent><dc:title>Daniel Mester Pirttijärvi</dc:title></cc:Agent></dc:creator><dc:source>https://github.com/dmester/jdenticon</dc:source><cc:license rdf:resource="https://github.com/dmester/jdenticon/blob/master/LICENSE"/></cc:Work></rdf:RDF></metadata><mask id="avatarsRadiusMask"><rect width="50" height="50" rx="0" ry="0" x="0" y="0" fill="#fff"/></mask><g mask="url(#avatarsRadiusMask)"><path fill="#4c4c4c" d="M13 13L13 1L25 1ZM25 1L37 1L37 13ZM37 37L37 49L25 49ZM25 49L13 49L13 37ZM1 25L1 13L13 13ZM37 13L49 13L49 25ZM49 25L49 37L37 37ZM13 37L1 37L1 25Z"/><path fill="#72cc66" d="M1 1L13 1L13 7ZM49 1L49 13L43 13ZM49 49L37 49L37 43ZM1 49L1 37L7 37ZM13 13L25 13L25 25L13 25ZM20.4 23.8L23.8 17L17 17ZM37 13L37 25L25 25L25 13ZM26.2 20.4L33 23.8L33 17ZM37 37L25 37L25 25L37 25ZM29.6 26.2L26.2 33L33 33ZM13 37L13 25L25 25L25 37ZM23.8 29.6L17 26.2L17 33Z"/></g></svg>